<svg xmlns="http://www.w3.org/2000/svg" aria-hidden="true" style="position:absolute;width:0;height:0;overflow:hidden">
  <defs>
    <symbol id="icon-menu1" viewBox="0 0 32 32">
      <path stroke-linecap="round" stroke-linejoin="round" stroke-width="2.667" d="M4 8h24M4 16h24M4 24h24"/>
    </symbol>
    <symbol id="icon-menu2" viewBox="0 0 47 32">
      <path stroke-linecap="round" stroke-linejoin="round" stroke-width="4.444" d="M3.619 2.667h40M3.619 16h40m-40 13.333h40"/>
    </symbol>
    <symbol id="icon-arrow" viewBox="0 0 32 32">
      <path stroke-linecap="round" stroke-linejoin="round" stroke-miterlimit="10" stroke-width="3.588" d="m25.473 12.352-7.798 7.798c-1.675 1.675-1.675 1.675-3.349 0l-7.798-7.798"/>
    </symbol>
    <symbol id="icon-close" viewBox="0 0 32 32">
      <path d="M16.011 19.328 4.4 30.947c-.434.435-.987.652-1.659.652s-1.225-.217-1.659-.651c-.435-.434-.652-.987-.652-1.659s.217-1.225.651-1.659l11.611-11.619L1.073 4.4C.638 3.966.421 3.413.421 2.741s.217-1.225.651-1.659C1.506.647 2.059.43 2.731.43s1.225.217 1.66.651L16.01 12.692 27.621 1.073c.434-.435.987-.652 1.659-.652s1.225.217 1.659.651c.435.434.652.987.652 1.659s-.217 1.225-.651 1.66L19.329 16.01l11.619 11.611c.435.434.652.987.652 1.659s-.217 1.225-.651 1.659c-.434.435-.987.652-1.659.652s-1.225-.217-1.659-.651L16.012 19.329z"/>
    </symbol>
    <symbol id="icon-point-list" viewBox="0 0 32 32">
      <path stroke-linecap="round" stroke-linejoin="round" stroke-miterlimit="10" stroke-width="1.729" d="M16 28c6.627 0 12-5.373 12-12S22.627 4 16 4 4 9.373 4 16s5.373 12 12 12z"/>
    </symbol>
  </defs>
</svg>
